<?xml version="1.0" encoding="UTF-8"?>
<svg version="1.1" viewBox="0 0 512 512" xmlns="http://www.w3.org/2000/svg">
<g stroke="#000">
<path d="m157.46 82.621c-10.506 11.681-21.392 23.153-31.548 35.024-14.416 17.132-26.023 35.569-39.515 53.144-13.033 16.236-24.966 32.987-35.698 50.23-9.8362 15.605-17.059 32.094-22.516 48.942-5.3272 19.112-9.132 38.433-9.9594 57.995-1.188 20.727 5.8853 40.522 15.303 59.631 9.7064 19.174 23.99 36.454 39.776 52.816 12.57 13.036 28.694 22.686 46.36 31.01 16.46 7.2985 34.013 12.8 52.241 16.627 18.647 4.1033 37.118 2.2928 55.676-0.86738 21.504-4.2337 40.103-12.783 56.95-23.868 16.623-10.209 28.318-23.897 39.198-37.88 13.06-17.286 24.743-35.202 35.314-53.503 13.109-23.595 21.393-48.537 28.363-73.618 8.5594-36.893 12.725-74.303 14.215-111.75-0.0307-18.883-1.2155-37.957-6.2596-56.482-2.404-8.8288-4.1866-12.279-7.751-20.65-7.5582-15.482-19.522-26.926-35.869-37.063-12.126-7.0707-25.957-11.906-39.813-16.447-11.277-3.4714-23.322-4.1254-35.285-4.545-10.901 0.2343-21.619 1.6374-31.978 4.2849-8.5112 2.0679-16.27 5.5739-24.533 8.1226-7.7262 2.4026-15.224 5.1166-22.518 8.2352-5.1615 2.1686-8.9065 5.7281-13.542 8.4146-2.3168 1.0024-4.9154 1.452-7.3104 2.4668-3.5498 0.94424-7.0202 2.05-10.555 3.0426-3.9825 0.84727-7.7054 1.8067-11.1 3.707-0.678 0.20918-1.3515 0.42362-2.0354 0.62101-7.6868 2.2771-3.593 10.828 4.0938 8.5513 1.6547-0.49758 3.2984-1.012 4.7849-1.7888 2.4358-1.4723 5.3486-1.658 8.2074-2.4977 4.0923-1.1759 8.1679-2.3509 12.203-3.6292 2.7567-1.239 6.1726-1.3995 8.6568-3.1485 4.1765-2.472 7.614-5.5911 12.144-7.7109 6.879-2.9415 13.945-5.5026 21.238-7.7647 8.0425-2.5138 15.639-5.8589 23.901-7.9427 8.9997-2.3726 18.352-3.4928 27.829-3.8349 10.604 0.36593 21.308 0.83972 31.336 3.8528 12.892 4.214 25.785 8.6754 37.107 15.201 14.283 8.7635 25.484 19.292 32.027 32.785 3.2919 7.6762 5.1033 11.222 7.3159 19.297 4.9087 17.916 6.0489 36.372 6.095 54.639-1.4523 36.893-5.5671 73.743-13.953 110.09-6.7814 24.454-14.839 48.777-27.591 71.789-10.364 17.967-21.844 35.545-34.649 52.516-10.205 13.154-21.111 26.065-36.758 35.648-15.347 10.188-32.315 17.997-51.949 21.936-16.756 2.8831-33.359 4.6836-50.226 0.96462-17.194-3.5721-33.723-8.7995-49.261-15.638-16.41-7.7063-31.398-16.585-43.071-28.694-15.146-15.676-28.875-32.224-38.199-50.6-8.8951-17.948-15.637-36.539-14.519-56.026 0.7491-18.904 4.5228-37.566 9.6079-56.039 5.2304-16.245 12.223-32.133 21.691-47.176 10.573-17.005 22.361-33.514 35.209-49.524 13.385-17.452 24.939-35.739 39.209-52.767 10.154-11.887 21.077-23.354 31.574-35.055 4.5562-5.3761-5.109-10.445-9.6652-5.0686z" fill="#010101" stroke-width="2.7259" style="paint-order:markers fill stroke"/>
<path d="m180.54 69.376c-13.135-1.3921-26.365-1.9984-39.596-2.4644-16.124-0.39216-32.164-1.8701-48.254-2.7381-10.383-0.55411-20.786-0.75413-31.19-0.8321-8.7072-0.33472-17.035 1.4115-24.799 4.3802-6.8998 3.2423-11.701 7.9592-16.099 13.121-4.0485 6.4003-7.937 12.88-11.546 19.442-2.3723 5.0883-5.0404 10.024-6.6434 15.308-1.2271 4.3839-1.5852 8.6023 0.048222 12.928 1.5251 4.5259 5.4772 7.904 9.6784 11.036 4.7314 3.1761 9.7936 5.6108 15.724 7.1107 5.8589 1.1208 11.916 1.1885 17.912 1.2485 5.3767 0.0193 10.753-0.0144 16.13-0.0283 7.1224 0.49997 13.665-1.0713 20.251-2.9732 6.1897-1.3673 12.127-3.2991 17.923-5.4696 5.2361-1.7307 9.805-4.2388 14.362-6.8532 4.4263-2.4564 8.8396-4.9056 13.245-7.3904 4.8572-2.5222 9.7581-5.0499 14.757-7.4057 5.7519-2.91 11.464-5.8586 17.18-8.815 4.5997-2.4579 8.8806-5.2377 12.986-8.1798 2.7846-2.0589 5.4738-4.1954 8.1674-6.3273 2.2922-2.3479 4.7494-4.4687 6.5364-7.1051 0.93466-2.893 1.6542-3.3626 3.4465-6.007 1.0951-1.3862 1.7192-2.8842 2.0237-4.4968 1.0814-6.405-10.434-7.608-11.515-1.203-9e-3 0.0968-0.12233 0.35302-0.0276 0.29038 1.2577-0.83573-0.7926 0.45053-0.7312 1.1108-1.3028 1.9227-3.0738 3.8731-3.4742 6.0482-1.214 1.8514-2.9601 3.2622-4.4973 4.9212-2.559 2.0255-5.1136 4.0554-7.7539 6.0158-3.6527 2.6211-7.4546 5.1022-11.543 7.2981-5.5907 2.8926-11.18 5.7771-16.803 8.6281-5.2411 2.5068-10.422 5.1284-15.521 7.8022-4.4355 2.5038-8.8695 4.9765-13.336 7.4422-3.9786 2.2982-7.9095 4.5194-12.533 5.9907-5.4423 2.0834-11.072 3.8184-16.895 5.1277-5.3633 1.5499-10.454 2.9247-16.284 2.4131-5.3156 0.0144-10.631 0.0457-15.947 0.029-4.888-0.0476-9.8203-0.0769-14.63-0.84239-4.3015-0.97257-7.716-2.8328-11.177-5.0238-2.7886-2.0625-5.6481-4.102-6.5719-7.132-1.1809-2.6467-0.42865-5.3384 0.17386-8.0822 1.4225-4.7698 3.9256-9.1899 6.0067-13.796 3.3087-6.0604 6.9988-11.995 10.531-17.975 3.2702-3.8444 6.611-7.4469 11.621-10.025 6.0531-2.4475 12.683-3.6905 19.515-3.4246 10.175 0.07576 20.351 0.26962 30.506 0.81113 16.182 0.87182 32.314 2.3604 48.53 2.7504 13.408 0.47055 26.792 1.1631 40.114 2.4735 8.2138 0 8.2138-9.1376 0-9.1376z" fill="#010101" stroke-width="2.7259" style="paint-order:markers fill stroke"/>
<path d="m380.59 118.01c11.011 1.114 21.578 3.6948 31.892 6.8403 11.746 3.9748 22.533 9.4247 32.718 15.458 9.2114 5.6928 16.655 12.917 24.483 19.724 7.5658 6.2318 13.891 13.388 18.908 21.035 6.252 8.9572 8.6325 18.755 9.9722 28.789 1.2868 9.721-0.22006 19.453-3.7007 28.794-2.7189 6.5244-7.0508 11.98-12.988 16.925-3.5738 3.3902-7.4142 5.3003-12.748 6.3053-4.0778 0.65576-7.9091 0.68944-11.688-0.7889-5.093-1.6919-9.5066-4.3322-13.685-7.1319-3.5828-2.8192-7.6848-5.1714-11.26-7.9856-2.388-2.5105-4.4738-5.2063-6.7722-7.7819-1.8831-2.0698-2.8489-4.4931-4.5384-6.6754-1.4749-1.9486-2.3164-4.0898-3.8312-6.057-1.5376-1.8278-2.9759-3.6225-4.3865-5.5484-0.90217-2.7382-2.2308-5.3345-3.6252-7.9443-0.92142-3.1165-2.2644-6.0767-3.8168-9.0356-0.95128-1.593-1.3862-3.337-1.727-5.0665-0.72836-0.98328-1.4567-1.9666-2.1851-2.9498-5.8449-4.5396-14.006 1.9626-8.1614 6.5022-0.37592-0.70954-0.75183-1.4191-1.1277-2.1286 0.49406 2.4344 1.1696 4.8719 2.4638 7.129 1.573 2.9975 2.7813 5.9487 3.8455 9.0897 1.5951 2.9854 2.815 5.96 4.2823 8.9838 1.4752 1.9951 3.0088 3.785 4.5411 5.7522 1.5416 1.9279 2.1055 4.1963 3.8368 6.0642 1.8346 2.3052 2.67 5.0159 4.9255 7.138 2.6937 3.0121 5.096 6.1706 8.0905 9.0115 3.8166 2.9649 8.1031 5.5068 11.933 8.4715 5.0846 3.3796 10.469 6.5299 16.65 8.5709 6.2463 1.9401 12.447 2.5129 19.041 1.2482 7.4341-1.4932 13.387-4.278 18.408-8.9153 7.1613-6.0212 12.438-12.746 15.683-20.648 3.8012-10.499 5.5816-21.381 4.0911-32.293-1.5239-11.165-4.2941-22.079-11.224-32.05-5.5559-8.3018-12.313-16.151-20.592-22.939-8.3237-7.238-16.264-14.894-26.118-20.898-11.05-6.524-22.75-12.417-35.509-16.677-11.056-3.3542-22.381-6.1171-34.172-7.3309-8.1021-1.0622-10.012 7.951-1.9097 9.0133z" fill="#010101" stroke-width="2.7259" style="paint-order:markers fill stroke"/>
<path d="m158.94 471.99c-46.266-13.092-76.717-35.667-102.56-76.028-20.198-31.551-25.805-54.968-20.844-87.063 7.4199-48.004 17.326-67.623 71.647-141.9 25.447-34.795 35.541-45.841 47.655-52.147 8.4531-4.4004 22.625-13.382 31.493-19.958 9.32-6.9118 28.241-15.928 44.841-21.368 37.85-12.404 59.754-12.402 90.999 0.0049 48.287 19.174 62.928 46.013 62.733 115-0.21698 76.938-17.839 143.51-52.285 197.51-25.932 40.657-42.288 58.59-65.977 72.338-33.501 19.442-70.551 24.124-107.71 13.61z" fill="#fca" stroke-width="3.3999" style="paint-order:markers fill stroke"/>
<path d="m26.67 132.36c-9.1131-3.8841-10.595-6.0796-8.8178-13.068 3.9111-15.383 19.658-37.586 29.354-41.388 9.2146-3.6138 33.345-3.3628 87.18 0.9067l20.095 1.5937-14.345 16.104c-28.248 31.711-82.765 48.937-113.47 35.852z" fill="#fca" stroke-width="3.3999" style="paint-order:markers fill stroke"/>
<path d="m448.09 252.42c-8.6461-5.0983-18.984-16.298-27.868-30.191-13.086-20.463-14.337-24.776-17.033-58.708-1.6-20.142-2.3041-37.098-1.5646-37.68 3.2206-2.5334 35.363 13.102 51.806 25.202 37.766 27.788 51.59 65.078 33.935 91.539-11.888 17.817-21.614 20.253-39.276 9.8384z" fill="#fca" stroke-width="3.3999" style="paint-order:markers fill stroke"/>
<ellipse cx="115.64" cy="163.21" rx="46.101" ry="36.265" fill="#fff" stroke-width="2.7259" style="paint-order:markers fill stroke"/>
<ellipse cx="247.8" cy="163.21" rx="46.101" ry="36.265" fill="#fff" stroke-width="2.7259" style="paint-order:markers fill stroke"/>
<path d="m100.76 171.49v-2.7618c0.0489-0.35887-0.13152-1.3842 0.17379-1.6684 0.0243 0.0193 0.0555 0.0322 0.0728 0.0549 0.19421 0.25649 0.29453 0.64684 0.42396 0.92335 0.16812 0.35917 0.37119 0.75523 0.54945 1.1091 0.49317 1.038 1.1622 2.0227 1.6107 3.0736 8e-3 0.14578 0.0651 0.27561-0.0853 0.39142-0.30274 0.23306-1.3155 0.0716-1.6642 0.0457-1.8441-0.16174-3.6796-0.38397-5.4947-0.68719-0.58877-0.1025-1.1853-0.19801-1.7417-0.38716-0.17334-0.059-0.39399-0.14217-0.36062-0.20527 0.02582-0.0486 0.11378-0.0558 0.17064-0.0837 1.8684-0.34538 3.7263-0.71925 5.5721-1.1347 1.8905-0.41782 3.7634-0.88259 5.6333-1.3536 1.132-0.27032-0.15266 0.0348 0.74098-0.17335 0.0652-0.0144 0.12902-0.0336 0.19476-0.0471 0.0285-5e-3 0.0947-0.0334 0.0877-0.01-0.0126 0.0401-0.33243 0.26749-0.34517 0.27697-1.3138 0.84872-2.5024 1.8076-3.7315 2.7293-0.97042 0.76988-1.986 1.5087-2.9086 2.315-0.07278 0.0672-0.14556 0.13442-0.2183 0.20163-0.0052 5e-3 0.0034 0.01 0.0089 5e-3 0.07272-0.0672 0.1454-0.13441 0.21812-0.20162 0.92238-0.80619 1.9378-1.5448 2.908-2.3145 1.2291-0.92176 2.4178-1.8806 3.7315-2.7293 0.0179-0.012 0.32329-0.21685 0.3354-0.29261 3e-3 -0.0169-0.0731 0.01-0.28386 0.058-0.89354 0.20815 0.39047-0.0969-0.74129 0.17335-1.8699 0.47099-3.7426 0.93573-5.633 1.3535-1.847 0.41574-3.7062 0.78922-5.5753 1.1359-0.05794 0.0322-0.14888 0.0442-0.17383 0.0965-0.03181 0.0665 0.20066 0.15255 0.36611 0.20864 0.55695 0.18931 1.154 0.28504 1.7434 0.38755 1.8155 0.30329 3.6515 0.52557 5.496 0.68734 0.35635 0.0263 1.3688 0.1893 1.6757-0.0505 0.15189-0.1187 0.0942-0.24994 0.086-0.3985-0.44871-1.051-1.1176-2.0359-1.6109-3.0741-0.17817-0.35363-0.38126-0.74974-0.5493-1.1087-0.10443-0.22316-0.25841-0.72464-0.42737-0.92729-0.0206-0.0247-0.0595-0.0358-0.0892-0.0537-0.31131 0.29597-0.12599 1.3047-0.17651 1.6742v2.7618c0 7e-3 0.0117 7e-3 0.0117 0z" fill="#fff" stroke-width="2.7259" style="paint-order:markers fill stroke"/>
<path d="m230.1 175.19v-2.3104c0-0.0904-6e-3 -0.18085 0-0.27101 0.0276-0.47918 0.27814 0.19969 0.30057 0.24297 0.0664 0.1267 0.13278 0.25352 0.19947 0.38027 0.58284 1.0235 1.3645 1.9649 2.0334 2.9532 0.0786 0.17938 0.465 0.53094 0.29044 0.75699-0.19947 0.25852-1.0023 0.0967-1.2131 0.0781-1.9353-0.25523-3.8475-0.62697-5.7241-1.0769 0.14414-0.25158-0.95074-0.0457-0.96441-0.32005-6e-3 -0.0921 0.19362-0.10951 0.30489-0.13806 0.28121-0.072 0.57353-0.11435 0.8631-0.16149 0.4411-0.072 2.4461-0.35375 2.797-0.40351 2.2406-0.3207 4.483-0.63589 6.718-0.98033-0.45274 0.14192 0.45923-0.12064 0.4222-0.0144-0.0154 0.0474-0.0854 0.0723-0.13462 0.1025-0.11157 0.0689-0.22989 0.13055-0.34619 0.19439-0.44942 0.24653-0.90264 0.48873-1.3537 0.73335-1.5123 0.83027-2.943 1.7461-4.3763 2.6573-0.64911 0.39091-0.34268 0.20285-0.92048 0.56307-6e-3 5e-3 7.6e-4 0.012 6e-3 7e-3 0.57774-0.3602 0.27138-0.17212 0.92058-0.56311 1.4331-0.91103 2.8636-1.8267 4.3756-2.6569 0.45112-0.24464 0.90445-0.48682 1.3538-0.73342 0.0516-0.0285 0.45797-0.23017 0.47777-0.31306 0.0276-0.11049-0.8214 0.15956-0.42819 0.0144-2.235 0.34444-4.4773 0.65961-6.7178 0.98031-0.34605 0.0491-2.3608 0.33216-2.7976 0.4036-0.29074 0.0476-0.58561 0.0868-0.86646 0.16272-0.11402 0.0309-0.3102 0.0588-0.30488 0.15377 0.0154 0.27496 1.1063 0.0696 0.96705 0.32097 1.8773 0.45002 3.7902 0.82193 5.7262 1.0772 0.22497 0.0193 1.0223 0.18205 1.226-0.0861 0.17395-0.22919-0.21054-0.58009-0.29198-0.76243-0.66878-0.98807-1.4501-1.9292-2.0329-2.9524-0.0612-0.11629-0.30906-0.68978-0.43802-0.79461-0.12632-0.1025-0.0769 0.5702-0.0842 0.44586v2.3104c0 7e-3 0.0123 7e-3 0.0123 0z" fill="#fff" stroke-width="2.7259" style="paint-order:markers fill stroke"/>
<path d="m78.899 366.01c3.3861 5.2664 7.0332 10.417 10.902 15.471 4.4836 4.9052 8.7276 10.011 13.927 14.47 3.795 3.2778 8.3252 5.5897 13.405 7.4031 4.2444 1.5977 8.5592 1.9399 13.134 1.2587 4.7359-1.0496 7.965-3.9306 11.234-6.6347 3.6889-2.7543 6.4452-6.1178 9.2232-9.4396 2.7689-3.5277 5.1501-7.2219 7.6127-10.883 2.6111-4.0836 4.3323-8.447 6.3445-12.719 1.5503-3.0998 2.5974-6.3248 3.2015-9.6169 0.66046-3.9992-1.2797-6.2076-6.2805-7.2848-5.3401-0.67257-10.762 0.0882-16.107 0.4209-6.6487 0.79264-13.361 1.1653-20.027 1.8267-6.1826 0.80877-12.458 0.91638-18.673 1.4672-4.9715 0.4012-9.8816 0.98929-14.756 1.852-2.6134 0.51609-5.3108 0.57296-7.9345 1.0163-2.0698 0.49866-4.0991 0.97885-5.9859 1.8276-1.1176 0.51506-2.0831 1.2002-3.0404 1.8792-4.569 3.2505 1.2748 8.3333 5.8438 5.0828 0.5144-0.36744 1.0154-0.75789 1.6046-1.0508 1.1129-0.54554 2.441-0.69384 3.6701-1.0863 2.3603-0.74296 5.3742-0.14786 7.7568-0.9832 4.5707-0.81088 9.1716-1.3554 13.835-1.7292 6.2454-0.57692 12.565-0.64117 18.779-1.4773 6.5269-0.6603 13.107-0.99478 19.615-1.7933 4.4696-0.2789 8.9868-0.88737 13.465-0.57403 0.14323 2e-3 0.47045 0.11389 0.4301 5e-3 -0.10143-0.27223-0.45045-0.44309-0.67569-0.66463-0.0885-0.21532-0.19824-0.42613-0.26554-0.64621-0.0519-0.16888 1.9491 2.2169 0.12047 0.94368-0.50244 2.8136-1.4192 5.5629-2.7484 8.2086-1.871 3.9908-3.4763 8.0634-5.8734 11.89-2.334 3.4701-4.5864 6.9722-7.1925 10.324-2.4919 2.9856-4.9226 6.0221-8.257 8.4817-2.033 1.683-4.0132 3.6662-6.738 4.6542-2.7018 0.57484-5.194 0.10289-7.7171-0.7976-4.0306-1.437-7.6238-3.1881-10.622-5.8279-4.871-4.0484-8.6044-8.8902-12.845-13.339-3.8357-5.0098-7.4357-10.12-10.801-15.336-3.0564-4.2074-10.621-0.80731-7.5642 3.4001z" stroke-width="2.7259" style="paint-order:markers fill stroke"/>
<path d="m118.46 403.56c0.0351 6.4641-0.13779 12.928 0.20813 19.388 0.16855 6.1766 1.4732 12.265 2.3626 18.387 0.53403 3.908 1.8236 7.6681 3.1621 11.436 0.8987 2.4693 2.2904 4.7683 3.61 7.1025 0.75877 1.8038 1.9786 3.4624 3.0529 5.1562 1.2494 1.4146 2.5052 2.8204 3.8493 4.1743 0.60261 0.49509 4.4716 2.8578 1.1813 0.59715 3.2392 4.1219 10.65 0.51841 7.4104-3.6035-1.3025-1.0522-1.0908-1.1877-2.0549-1.5241 0.39497 1.0369-2.6166-3.2992-2.6071-2.7295-1.0334-1.5998-2.176-3.1702-2.8868-4.8823-1.163-2.0168-2.3706-4.0012-3.1656-6.1383-1.2183-3.4179-2.4178-6.8194-2.8963-10.369-0.87132-5.9602-2.145-11.887-2.3139-17.901-0.35431-6.3607-0.15142-12.728-0.20011-19.094 0-4.8459-8.7121-4.8459-8.7121 0z" stroke-width="2.7259" style="paint-order:markers fill stroke"/>
<path d="m119.25 394.2c-10.5-5.0369-31.76-29.334-27.361-31.271 2.7019-1.1894 62.55-6.8668 63.609-6.0341 0.40326 0.31722-1.2144 4.647-3.5948 9.6218-6.4182 13.413-21.388 30.271-26.837 30.22-0.29634-2e-3 -2.9136-1.1441-5.816-2.5364z" fill="#fff" stroke-width="1.5135" style="paint-order:markers fill stroke"/>
<path d="m82.628 450.22c-0.31515 7.2833 0.28371 14.508 1.5011 21.725 1.1664 6.8966 2.6819 13.835 6.4226 20.183 1.8459 3.231 6.4412 5.7989 10.523 2.8057 0.69514-0.50978 1.0642-1.2389 1.5962-1.8584 1.9709-4.0831 3.3306-8.333 4.4236-12.61 0.71943-3.4276 1.8049-6.7914 2.4917-10.225 0.47561-1.5725 0.14313-3.2369 0.82191-4.7545 0.32985-0.83766 0.64073-1.6798 0.94739-2.5229 1.6943-4.659-6.6817-6.5439-8.3761-1.8849-0.28309 0.77864-0.57002 1.5565-0.87348 2.3304-0.73287 1.897-0.81673 3.8148-1.1265 5.7696-0.66383 3.3391-1.7398 6.6075-2.4276 9.9422-0.91587 3.6174-2.1282 7.1637-3.5349 10.682 1.363-0.1503 3.6425-0.88571 4.4423 0.558 0.23653 0.42696-3.3846-2.8826-1.0206-1.1435-3.444-5.6786-4.5341-12.009-5.6738-18.178-1.1806-6.9153-1.7293-13.838-1.4245-20.818 0-4.846-8.7121-4.846-8.7121 0z" fill="#fff" stroke-width="2.7259" style="paint-order:markers fill stroke"/>
<path d="m190 483.08c4.5559 6.7905 10.327 12.936 16.583 18.8 3.594 3.1311 6.7859 6.7487 11.818 8.4883 5.2184 1.1234 7.4899-1.4817 7.7937-5.0829 0.0655-3.333 9e-3 -6.667-9e-3 -10-0.11156-3.4273 0.66746-6.8237 1.1767-10.218-0.0587-1.8719 0.81388-3.5328 1.3922-5.3059 1.4988-4.7003-6.9515-6.3677-8.4503-1.6674-0.62921 2.0467-1.629 4.0226-1.5939 6.1702-0.55054 3.6707-1.3682 7.3434-1.2367 11.051 0.0185 3.201 0.0652 6.4024 0.0216 9.6033-6e-3 0.17401-0.22867 0.47105-0.0185 0.52242 0.20776 0.0506 0.19086-0.30872 0.31198-0.45086 0.92571-1.0867 2.2746-1.1987 3.805-0.99713-2.3168-0.18256-6.5695-5.3783-8.3407-6.5201-5.9054-5.525-11.352-11.312-15.638-17.72-2.9917-4.2361-10.607-0.9079-7.6157 3.3282z" fill="#fff" stroke-width="2.7259" style="paint-order:markers fill stroke"/>
<path d="m285.52 96.544c-10.243-10.192-19.462-21.265-32.011-24.287-12.548-3.0216-28.425 2.0115-37.133-3.6493-8.7075-5.6608-10.244-22.019-5.2501-34.226s16.517-20.26 25.866-22.272c9.3483-2.0121 16.518 2.0144 28.041 0.50314s27.399-8.5576 39.308-4.529c11.908 4.0286 19.846 19.128 34.187 24.159 14.341 5.0313 35.083-0.0018 45.453 6.9207 10.37 6.9224 10.37 25.797 20.871 37.624s31.499 16.609 37.131 27.934-4.099 29.193-19.591 38.378c-15.492 9.1852-36.746 9.6885-48.911 3.3984-12.165-6.2901-15.238-19.376-22.92-24.034-7.682-4.6575-19.974-0.88267-31.753-3.6496s-23.047-12.078-33.29-22.27z" fill="#1a1a1a" stroke-width="13.629" style="paint-order:markers fill stroke"/>
<path d="m106.93 378.85c-5.9819-6.9462-10.07-13.174-9.0853-13.84 0.98504-0.66565 13.719-2.2678 28.299-3.5603l26.508-2.35-10.669 15.214c-5.868 8.3678-13.708 15.653-17.422 16.19-3.7143 0.53654-11.648-4.7077-17.629-11.654z" fill="#6c5353" stroke-width="4.029" style="paint-order:markers fill stroke"/>
</g>
</svg>
